<svg width="245" height="49" viewBox="0 0 245 49" fill="none" xmlns="http://www.w3.org/2000/svg">
<path d="M44.8555 15.3255C43.556 14.5837 43.1075 12.7816 42.147 11.7982C40.2908 9.89779 34.8149 5.83919 32.314 5.07275C31.9353 4.95679 31.6777 5.46839 31.287 5.41152C29.3429 5.12935 27.2577 4.37837 25.338 4.26241C23.5823 4.15639 21.644 4.30272 19.9361 4.27677C19.7773 4.27428 19.8031 4.75966 19.5252 4.87424C13.8742 7.20531 9.587 9.72164 7.34488 15.9241C3.09826 27.6717 8.94257 38.0832 21.0213 40.7605C21.3279 40.8285 21.8271 40.5339 22.2459 40.6178C23.0517 40.7793 24.1441 41.7216 24.9702 41.4994C25.3623 41.3939 25.6313 40.7978 26.14 40.6236C29.9439 39.3199 32.5555 39.5126 35.3639 35.9938C36.0367 35.1506 37.8943 31.8004 38.0214 30.883C38.2738 29.0646 36.535 27.7404 38.0248 24.514C39.6133 21.0738 44.1685 22.1937 47.1774 21.7536C49.7763 24.9618 49.1597 28.691 48.0041 32.399C45.0494 41.8796 35.7159 47.915 26.0568 48.9479C22.3989 49.3391 14.8272 47.4663 11.5523 45.5168C2.03841 39.8527 -2.12084 27.1526 1.04924 16.7367C6.75694 -2.0182 33.1896 -6.54009 43.2266 11.0618C43.8952 12.2344 44.5761 13.9901 44.8552 15.3255H44.8555Z" fill="#F8F3EF"/>
<path d="M192.766 20.8049H187.609V23.9194H191.624V24.9089H187.609V28.2201H193V29.2477H186.543V19.7773H192.766V20.8049Z" fill="#F8F3EF"/>
<path d="M182.85 28.2201V29.2477H176.799V19.7773H177.865V28.2201H182.85Z" fill="#F8F3EF"/>
<path d="M172.312 21.6234C171.509 20.9552 170.595 20.6211 169.572 20.6211C168.409 20.6211 167.483 20.9721 166.793 21.6741C166.1 22.3803 165.753 23.3297 165.753 24.5222C165.753 25.6936 166.096 26.6282 166.781 27.326C167.47 28.0279 168.392 28.3789 169.546 28.3789C170.637 28.3789 171.581 28.0195 172.376 27.3006L172.959 28.1696C172.033 28.9942 170.859 29.4065 169.439 29.4065C168.039 29.4065 166.889 28.9562 165.988 28.0554C165.087 27.1547 164.637 25.9664 164.637 24.4905C164.637 23.0189 165.083 21.8369 165.975 20.9446C166.876 20.0439 168.045 19.5935 169.483 19.5935C170.832 19.5935 171.953 19.9762 172.845 20.7417L172.312 21.6234Z" fill="#F8F3EF"/>
<path d="M161.135 29.2225C160.674 29.2225 160.306 29.2395 160.031 29.2733L158.617 26.4442C158.13 26.6218 157.445 26.717 156.562 26.7296C156.058 26.7296 155.462 26.6852 154.773 26.5964V29.2479H153.707V19.8916C155.081 19.7098 156.077 19.6189 156.695 19.6189C157.147 19.6189 157.579 19.6612 157.989 19.7457C158.403 19.8261 158.796 19.9572 159.169 20.139C159.541 20.3209 159.862 20.5471 160.133 20.8177C160.408 21.0884 160.623 21.4225 160.78 21.82C160.941 22.2175 161.021 22.6615 161.021 23.1521C161.008 24.4841 160.513 25.442 159.537 26.0255L161.135 29.2225ZM154.773 25.5688C155.513 25.683 156.183 25.7401 156.784 25.7401C157.672 25.7401 158.412 25.5371 159.004 25.1311C159.604 24.7294 159.904 24.0887 159.904 23.2091C159.904 22.3888 159.596 21.7608 158.978 21.3252C158.365 20.8896 157.608 20.6718 156.707 20.6718C156.23 20.6718 155.585 20.7205 154.773 20.8177V25.5688Z" fill="#F8F3EF"/>
<path d="M149.47 29.2477H148.404V19.7773H149.47V29.2477Z" fill="#F8F3EF"/>
<path d="M143.916 21.6234C143.112 20.9552 142.199 20.6211 141.175 20.6211C140.012 20.6211 139.086 20.9721 138.397 21.6741C137.703 22.3803 137.357 23.3297 137.357 24.5222C137.357 25.6936 137.699 26.6282 138.384 27.326C139.074 28.0279 139.995 28.3789 141.15 28.3789C142.241 28.3789 143.184 28.0195 143.979 27.3006L144.563 28.1696C143.637 28.9942 142.463 29.4065 141.042 29.4065C139.642 29.4065 138.492 28.9562 137.591 28.0554C136.691 27.1547 136.24 25.9664 136.24 24.4905C136.24 23.0189 136.686 21.8369 137.579 20.9446C138.479 20.0439 139.649 19.5935 141.087 19.5935C142.436 19.5935 143.556 19.9762 144.448 20.7417L143.916 21.6234Z" fill="#F8F3EF"/>
<path d="M130.127 29.2477H129.023V20.7922H125.623V19.7773H133.571V20.7922H130.127V29.2477Z" fill="#F8F3EF"/>
<path d="M122.348 20.8049H117.191V23.9194H121.206V24.9089H117.191V28.2201H122.582V29.2477H116.125V19.7773H122.348V20.8049Z" fill="#F8F3EF"/>
<path d="M111.469 19.7521C111.778 19.7859 112.173 19.8028 112.655 19.8028L108.38 29.2479H107.638L103.35 19.8028C103.713 19.8028 104.104 19.7859 104.523 19.7521L108.006 27.5733L111.469 19.7521Z" fill="#F8F3EF"/>
<path d="M102.014 28.2201V29.2477H95.9629V19.7773H97.0286V28.2201H102.014Z" fill="#F8F3EF"/>
<path d="M92.0001 20.8049H86.843V23.9194H90.8583V24.9089H86.843V28.2201H92.2348V29.2477H85.7773V19.7773H92.0001V20.8049Z" fill="#F8F3EF"/>
<path d="M81.1194 19.7521C81.4281 19.7859 81.8235 19.8028 82.3056 19.8028L78.0302 29.2479H77.2881L73 19.8028C73.3637 19.8028 73.7549 19.7859 74.1735 19.7521L77.656 27.5733L81.1194 19.7521Z" fill="#F8F3EF"/>
</svg>
